<svg width="16" height="16" viewBox="0 0 16 16" fill="none" xmlns="http://www.w3.org/2000/svg">
<path opacity="0.4" d="M6 4.79998V11.1933C6 13.3333 7.33333 14.6666 9.46667 14.6666H11.1933C13.3267 14.6666 14.66 13.3333 14.66 11.2V4.79998C14.6667 2.66665 13.3333 1.33331 11.2 1.33331H9.46667C7.33333 1.33331 6 2.66665 6 4.79998Z" fill="#8F0A13"/>
<path d="M3.71336 5.41331L1.48002 7.64664C1.28669 7.83997 1.28669 8.15997 1.48002 8.35331L3.71336 10.5866C3.90669 10.78 4.22669 10.78 4.42002 10.5866C4.61336 10.3933 4.61336 10.0733 4.42002 9.87997L3.04002 8.49997H10.1667C10.44 8.49997 10.6667 8.27331 10.6667 7.99997C10.6667 7.72664 10.44 7.49997 10.1667 7.49997H3.04002L4.42002 6.11997C4.52002 6.01997 4.56669 5.89331 4.56669 5.76664C4.56669 5.63997 4.52002 5.50664 4.42002 5.41331C4.22669 5.21331 3.91336 5.21331 3.71336 5.41331Z" fill="#8F0A13"/>
</svg>
