<svg width="18" height="25" viewBox="0 0 18 25" fill="none" xmlns="http://www.w3.org/2000/svg">
<mask id="path-1-inside-1_1_204" fill="white">
<path fill-rule="evenodd" clip-rule="evenodd" d="M7.6419 7.24008C7.21338 3.39899 3.95546 0.412506 0 0.412506V16.075V16.1625H0.000419469C0.047311 21.0513 4.01966 25 8.91304 25C13.8356 25 17.8261 21.0041 17.8261 16.075C17.8261 11.1459 13.8356 7.15001 8.91304 7.15001C8.48147 7.15001 8.05707 7.18072 7.6419 7.24008Z"/>
</mask>
<path fill-rule="evenodd" clip-rule="evenodd" d="M7.6419 7.24008C7.21338 3.39899 3.95546 0.412506 0 0.412506V16.075V16.1625H0.000419469C0.047311 21.0513 4.01966 25 8.91304 25C13.8356 25 17.8261 21.0041 17.8261 16.075C17.8261 11.1459 13.8356 7.15001 8.91304 7.15001C8.48147 7.15001 8.05707 7.18072 7.6419 7.24008Z" fill="#5D5FEF"/>
<path d="M0 0.412506V0.0627407H-0.349765V0.412506H0ZM7.6419 7.24008L7.29429 7.27886L7.33428 7.63739L7.6914 7.58633L7.6419 7.24008ZM0 16.1625H-0.349765V16.5123H0V16.1625ZM0.000419469 16.1625L0.350169 16.1592L0.346846 15.8127H0.000419469V16.1625ZM0 0.762272C3.7753 0.762272 6.8853 3.61285 7.29429 7.27886L7.9895 7.2013C7.54146 3.18513 4.13561 0.0627407 0 0.0627407V0.762272ZM0.349765 16.075V0.412506H-0.349765V16.075H0.349765ZM0.349765 16.1625V16.075H-0.349765V16.1625H0.349765ZM0.000419469 15.8127H0V16.5123H0.000419469V15.8127ZM8.91304 24.6502C4.21215 24.6502 0.395226 20.8568 0.350169 16.1592L-0.34933 16.1659C-0.300604 21.2459 3.82718 25.3498 8.91304 25.3498V24.6502ZM17.4763 16.075C17.4763 20.8114 13.642 24.6502 8.91304 24.6502V25.3498C14.0292 25.3498 18.1758 21.1969 18.1758 16.075H17.4763ZM8.91304 7.49977C13.642 7.49977 17.4763 11.3386 17.4763 16.075H18.1758C18.1758 10.9531 14.0292 6.80024 8.91304 6.80024V7.49977ZM7.6914 7.58633C8.09023 7.5293 8.49809 7.49977 8.91304 7.49977V6.80024C8.46486 6.80024 8.02391 6.83214 7.59239 6.89384L7.6914 7.58633Z" fill="url(#paint0_linear_1_204)" fill-opacity="0.1" mask="url(#path-1-inside-1_1_204)"/>
<defs>
<linearGradient id="paint0_linear_1_204" x1="8.91304" y1="-6.32499" x2="8.91304" y2="25" gradientUnits="userSpaceOnUse">
<stop stop-color="white"/>
<stop offset="1" stop-color="white" stop-opacity="0"/>
</linearGradient>
</defs>
</svg>
